{"title":"Dark.Circles.2013.DVDRiP.AC3.XViD-CM8","uid":8480200,"size":1039879845,"categoryP":"video","categoryS":"movies","magnet":"?xt=urn:btih:1f6cb15802f3bc7ac4cb1104964d988d65a08176&amp;dn=Dark.Circles.2013.DVDRiP.AC3.XViD-CM8&amp;tr=udp%3A%2F%2Ftracker.openbittorrent.com%3A80&amp;tr=udp%3A%2F%2Fopen.demonii.com%3A1337&amp;tr=udp%3A%2F%2Ftracker.coppersurfer.tk%3A6969&amp;tr=udp%3A%2F%2Fexodus.desync.com%3A6969","seeders":0,"leechers":1,"uploader":"R0thschild","files":4,"time":1368716312,"description":"              ***********************************************\n\n                PublicHash - Largest Bittorrent Community\n      \n                         &lt;a href=&quot; http://publichash.com/&quot; rel=&quot;nofollow&quot; target=&quot;_NEW&quot;&gt; http://publichash.com/&lt;/a&gt;\n    \n              ***********************************************\n\n\nSource: LTFS Thx\n\nVideo: 720x304 @bitrate 1596 2pass\nAudio: English AC3 5.1 @448\nSample: yes included &lt;a href=&quot;\nhttp://www.imdb.com/title/tt1863201/&quot; rel=&quot;nofollow&quot; target=&quot;_NEW&quot;&gt;\nhttp://www.imdb.com/title/tt1863201/&lt;/a&gt;\n\nGeneral\nComplete name: Dark.Circles.2013.DVDRiP.AC3.XViD-CM8.avi\nFormat: AVI\nFormat/Info: Audio Video Interleave\nFile size: 988 MiB\nDuration: 1h 26mn\nOverall bit rate: 1 596 Kbps\nWriting application: VirtualDubMod 1.5.4.1 (build 2178/release)\nWriting library: VirtualDubMod build 2178/release\n\nVideo\nID: 0\nFormat: MPEG-4 Visual\nFormat profile: Advanced Simple@L5\nFormat settings, BVOP: No\nFormat settings, QPel: No\nFormat settings, GMC: No warppoints\nFormat settings, Matrix: Custom\nCodec ID: XVID\nCodec ID/Hint: XviD\nDuration: 1h 26mn\nBit rate: 1 141 Kbps\nWidth: 720 pixels\nHeight: 304 pixels\nDisplay aspect ratio: 2.35:1\nFrame rate: 23.976 fps\nColor space: YUV\nChroma subsampling: 4:2:0\nBit depth: 8 bits\nScan type: Progressive\nCompression mode: Lossy\nBits/(Pixel*Frame): 0.217\nStream size: 707 MiB (72%)\nWriting library: XviD 1.2.1 (UTC 2008-12-04)\n\nAudio\nID: 1\nFormat: AC-3\nFormat/Info: Audio Coding 3\nMode extension: CM (complete main)\nFormat settings, Endianness: Big\nCodec ID: 2000\nDuration: 1h 26mn\nBit rate mode: Constant\nBit rate: 448 Kbps\nChannel(s): 6 channels\nChannel positions: Front: L C R, Side: L R, LFE\nSampling rate: 48.0 KHz\nBit depth: 16 bits\nCompression mode: Lossy\nStream size: 278 MiB (28%)\nAlignment: Split accross interleaves\nInterleave, duration: 96 ms (2.30 video frames)\nInterleave, preload duration: 96 ms","torrent":{"xt":"urn:btih:1f6cb15802f3bc7ac4cb1104964d988d65a08176","amp;dn":"Dark.Circles.2013.DVDRiP.AC3.XViD-CM8","amp;tr":["udp%3A%2F%2Ftracker.openbittorrent.com%3A80","udp%3A%2F%2Fopen.demonii.com%3A1337","udp%3A%2F%2Ftracker.coppersurfer.tk%3A6969","udp%3A%2F%2Fexodus.desync.com%3A6969"],"infoHash":"1f6cb15802f3bc7ac4cb1104964d988d65a08176","infoHashBuffer":{"type":"Buffer","data":[31,108,177,88,2,243,188,122,196,203,17,4,150,77,152,141,101,160,129,118]},"announce":[],"urlList":[]}}